<svg version='1.1' baseProfile='full' xmlns='http://www.w3.org/2000/svg' width='1455.2461632883367' height='149.09942086716703'><g transform='translate(5, 5)'><g transform='scale(0.7451055876709859) translate(184, -75)'><g><g><polyline points="20,150 37,150 54,150 " style="fill: none; stroke: black;"></polyline><g transform="translate(35, 155)"><text text-anchor="start" y="3" transform="rotate(90)" font-size="12">64x64</text></g></g><g transform="translate(-19, 155)"><text text-anchor="start" y="3" transform="rotate(90)" font-size="12">64x64</text></g></g><g><g><polyline points="128,150 145,150 162,150 " style="fill: none; stroke: black;"></polyline><g transform="translate(143, 155)"><text text-anchor="start" y="3" transform="rotate(90)" font-size="12">64x64</text></g></g></g><g><g><polyline points="236,150 253,150 270,150 " style="fill: none; stroke: black;"></polyline><g transform="translate(251, 155)"><text text-anchor="start" y="3" transform="rotate(90)" font-size="12">32x32</text></g></g></g><g><g><polyline points="290,150 307,150 324,150 " style="fill: none; stroke: black;"></polyline><g transform="translate(305, 155)"><text text-anchor="start" y="3" transform="rotate(90)" font-size="12">32x32</text></g></g></g><g><g><polyline points="364,150 381,150 398,150 " style="fill: none; stroke: black;"></polyline><g transform="translate(379, 155)"><text text-anchor="start" y="3" transform="rotate(90)" font-size="12">32x32</text></g></g></g><g><g><polyline points="512,150 529,150 546,150 " style="fill: none; stroke: black;"></polyline><g transform="translate(527, 155)"><text text-anchor="start" y="3" transform="rotate(90)" font-size="12">32x32</text></g></g></g><g><g><polyline points="660,150 677,150 694,150 " style="fill: none; stroke: black;"></polyline><g transform="translate(675, 155)"><text text-anchor="start" y="3" transform="rotate(90)" font-size="12">16x16</text></g></g></g><g><g><polyline points="734,150 751,150 768,150 " style="fill: none; stroke: black;"></polyline><g transform="translate(749, 155)"><text text-anchor="start" y="3" transform="rotate(90)" font-size="12">16x16</text></g></g></g><g><g><polyline points="848,150 865,150 882,150 " style="fill: none; stroke: black;"></polyline><g transform="translate(863, 155)"><text text-anchor="start" y="3" transform="rotate(90)" font-size="12">16x16</text></g></g></g><g><g><polyline points="1076,150 1093,150 1110,150 " style="fill: none; stroke: black;"></polyline><g transform="translate(1091, 155)"><text text-anchor="start" y="3" transform="rotate(90)" font-size="12">16x16</text></g></g></g><g><g><polyline points="1304,150 1321,150 1338,150 " style="fill: none; stroke: black;"></polyline><g transform="translate(1319, 155)"><text text-anchor="start" y="3" transform="rotate(90)" font-size="12">8x8</text></g></g></g><g><g><polyline points="1418,150 1435,150 1452,150 " style="fill: none; stroke: black;"></polyline><g transform="translate(1433, 155)"><text text-anchor="start" y="3" transform="rotate(90)" font-size="12">8x8</text></g></g></g><g><g><polyline points="1472,150 1489,150 1506,150 " style="fill: none; stroke: black;"></polyline></g></g><g><g><polyline points="1526,150 1543,150 1560,150 " style="fill: none; stroke: black;"></polyline></g></g><g><g><polyline points="1634,150 1651,150 1668,150 " style="fill: none; stroke: black;"></polyline></g></g><g><g><polyline points="1688,150 1705,150 1722,150 " style="fill: none; stroke: black;"></polyline></g></g><g></g><g><g><polyline points="74,150 91,150 108,150 " style="fill: none; stroke: black;"></polyline><g transform="translate(89, 155)"><text text-anchor="start" y="3" transform="rotate(90)" font-size="12">64x64</text></g></g></g><g><g><polyline points="182,150 199,150 216,150 " style="fill: none; stroke: black;"></polyline><g transform="translate(197, 155)"><text text-anchor="start" y="3" transform="rotate(90)" font-size="12">64x64</text></g></g></g><g><g><polyline points="438,150 455,150 472,150 " style="fill: none; stroke: black;"></polyline><g transform="translate(453, 155)"><text text-anchor="start" y="3" transform="rotate(90)" font-size="12">32x32</text></g></g></g><g><g><polyline points="586,150 603,150 620,150 " style="fill: none; stroke: black;"></polyline><g transform="translate(601, 155)"><text text-anchor="start" y="3" transform="rotate(90)" font-size="12">32x32</text></g></g></g><g><g><polyline points="962,150 979,150 996,150 " style="fill: none; stroke: black;"></polyline><g transform="translate(977, 155)"><text text-anchor="start" y="3" transform="rotate(90)" font-size="12">16x16</text></g></g></g><g><g><polyline points="1190,150 1207,150 1224,150 " style="fill: none; stroke: black;"></polyline><g transform="translate(1205, 155)"><text text-anchor="start" y="3" transform="rotate(90)" font-size="12">16x16</text></g></g></g><g><g><polyline points="1580,150 1597,150 1614,150 " style="fill: none; stroke: black;"></polyline></g></g><g><g transform="translate(0, 75)"><path d="M 0 0 L 20 0 V 150 L 0 150 V 0 z" style="fill: rgb(158, 158, 158); stroke: rgb(132, 132, 132); stroke-width: 4; stroke-linejoin: round;"></path><g></g><text text-anchor="middle" x="10" y="167" font-size="12">32</text><text text-anchor="middle" x="10" y="184" font-size="12">Conv2D</text></g><g transform="translate(-184, 75)"><rect x="0" y="0" width="150" height="150" style="stroke: lightgrey; stroke-linejoin: round; stroke-width: 2; fill-opacity: 0; stroke-dasharray: 4;"></rect></g></g><g><g transform="translate(108, 75)"><path d="M 0 0 L 20 0 V 150 L 0 150 V 0 z" style="fill: rgb(158, 158, 158); stroke: rgb(132, 132, 132); stroke-width: 4; stroke-linejoin: round;"></path><g></g><text text-anchor="middle" x="10" y="167" font-size="12">32</text><text text-anchor="middle" x="10" y="184" font-size="12">Conv2D</text></g></g><g><g transform="translate(216, 75)"><path d="M 0 0 L 20 34.28571428571429 V 115.71428571428571 L 0 150 V 0 z" style="fill: rgb(244, 67, 54); stroke: rgb(234, 28, 13); stroke-width: 4; stroke-linejoin: round;"></path><g></g><text text-anchor="middle" x="10" y="167" font-size="12">32</text><text text-anchor="middle" x="10" y="184" font-size="12">MP 2D</text></g></g><g><g transform="translate(270, 75)"><path d="M 0 34.28571428571429 L 20 34.28571428571429 V 115.71428571428571 L 0 115.71428571428571 V 34.28571428571429 z" style="fill: rgb(0, 150, 136); stroke: rgb(0, 99, 90); stroke-width: 4; stroke-linejoin: round;"></path><g></g><text text-anchor="middle" x="10" y="132.71428571428572" font-size="12">32</text><text text-anchor="middle" x="10" y="149.71428571428572" font-size="12">Dropout</text></g></g><g><g transform="translate(324, 75)"><path d="M 0 34.28571428571429 L 40 34.28571428571429 V 115.71428571428571 L 0 115.71428571428571 V 34.28571428571429 z" style="fill: rgb(158, 158, 158); stroke: rgb(132, 132, 132); stroke-width: 4; stroke-linejoin: round;"></path><g></g><text text-anchor="middle" x="20" y="132.71428571428572" font-size="12">64</text><text text-anchor="middle" x="20" y="149.71428571428572" font-size="12">Conv2D</text></g></g><g><g transform="translate(472, 75)"><path d="M 0 34.28571428571429 L 40 34.28571428571429 V 115.71428571428571 L 0 115.71428571428571 V 34.28571428571429 z" style="fill: rgb(158, 158, 158); stroke: rgb(132, 132, 132); stroke-width: 4; stroke-linejoin: round;"></path><g></g><text text-anchor="middle" x="20" y="132.71428571428572" font-size="12">64</text><text text-anchor="middle" x="20" y="149.71428571428572" font-size="12">Conv2D</text></g></g><g><g transform="translate(620, 75)"><path d="M 0 34.28571428571429 L 40 51.42857142857143 V 98.57142857142857 L 0 115.71428571428571 V 34.28571428571429 z" style="fill: rgb(244, 67, 54); stroke: rgb(234, 28, 13); stroke-width: 4; stroke-linejoin: round;"></path><g></g><text text-anchor="middle" x="20" y="132.71428571428572" font-size="12">64</text><text text-anchor="middle" x="20" y="149.71428571428572" font-size="12">MP 2D</text></g></g><g><g transform="translate(694, 75)"><path d="M 0 51.42857142857143 L 40 51.42857142857143 V 98.57142857142857 L 0 98.57142857142857 V 51.42857142857143 z" style="fill: rgb(0, 150, 136); stroke: rgb(0, 99, 90); stroke-width: 4; stroke-linejoin: round;"></path><g></g><text text-anchor="middle" x="20" y="115.57142857142857" font-size="12">64</text><text text-anchor="middle" x="20" y="132.57142857142856" font-size="12">Dropout</text></g></g><g><g transform="translate(768, 75)"><path d="M 0 51.42857142857143 L 80 51.42857142857143 V 98.57142857142857 L 0 98.57142857142857 V 51.42857142857143 z" style="fill: rgb(158, 158, 158); stroke: rgb(132, 132, 132); stroke-width: 4; stroke-linejoin: round;"></path><g></g><text text-anchor="middle" x="40" y="115.57142857142857" font-size="12">128</text><text text-anchor="middle" x="40" y="132.57142857142856" font-size="12">Conv2D</text></g></g><g><g transform="translate(996, 75)"><path d="M 0 51.42857142857143 L 80 51.42857142857143 V 98.57142857142857 L 0 98.57142857142857 V 51.42857142857143 z" style="fill: rgb(158, 158, 158); stroke: rgb(132, 132, 132); stroke-width: 4; stroke-linejoin: round;"></path><g></g><text text-anchor="middle" x="40" y="115.57142857142857" font-size="12">128</text><text text-anchor="middle" x="40" y="132.57142857142856" font-size="12">Conv2D</text></g></g><g><g transform="translate(1224, 75)"><path d="M 0 51.42857142857143 L 80 60 V 90 L 0 98.57142857142857 V 51.42857142857143 z" style="fill: rgb(244, 67, 54); stroke: rgb(234, 28, 13); stroke-width: 4; stroke-linejoin: round;"></path><g></g><text text-anchor="middle" x="40" y="115.57142857142857" font-size="12">128</text><text text-anchor="middle" x="40" y="132.57142857142856" font-size="12">MP 2D</text></g></g><g><g transform="translate(1338, 75)"><path d="M 0 60 L 80 60 V 90 L 0 90 V 60 z" style="fill: rgb(0, 150, 136); stroke: rgb(0, 99, 90); stroke-width: 4; stroke-linejoin: round;"></path><g></g><text text-anchor="middle" x="40" y="107" font-size="12">128</text><text text-anchor="middle" x="40" y="124" font-size="12">Dropout</text></g></g><g><g transform="translate(1452, 75)"><path d="M 0 0 L 20 0 V 150 L 0 150 V 0 z" style="fill: rgb(121, 85, 72); stroke: rgb(121, 85, 72); stroke-width: 4; stroke-linejoin: round;"></path><g></g><text text-anchor="middle" x="10" y="167" font-size="12">8192</text><text text-anchor="middle" x="10" y="184" font-size="12">Flatten</text></g></g><g><g transform="translate(1506, 75)"><path d="M 0 0 L 20 0 V 150 L 0 150 V 0 z" style="fill: rgb(255, 235, 59); stroke: rgb(255, 235, 59); stroke-width: 4; stroke-linejoin: round;"></path><g></g><text text-anchor="middle" x="10" y="167" font-size="12">128</text><text text-anchor="middle" x="10" y="184" font-size="12">Dense</text></g></g><g><g transform="translate(1614, 75)"><path d="M 0 0 L 20 0 V 150 L 0 150 V 0 z" style="fill: rgb(0, 150, 136); stroke: rgb(0, 150, 136); stroke-width: 4; stroke-linejoin: round;"></path><g></g><text text-anchor="middle" x="10" y="167" font-size="12">128</text><text text-anchor="middle" x="10" y="184" font-size="12">Dropout</text></g></g><g><g transform="translate(1668, 75)"><path d="M 0 60 L 20 60 V 90 L 0 90 V 60 z" style="fill: rgb(255, 235, 59); stroke: rgb(255, 235, 59); stroke-width: 4; stroke-linejoin: round;"></path><g></g><text text-anchor="middle" x="10" y="107" font-size="12">20</text><text text-anchor="middle" x="10" y="124" font-size="12">Dense</text></g></g><g><g transform="translate(1722, 75)"><path d="M 0 60 L 20 60 V 90 L 0 90 V 60 z" style="fill: rgb(63, 81, 181); stroke: rgb(63, 81, 181); stroke-width: 4; stroke-linejoin: round;"></path><g></g><text text-anchor="middle" x="10" y="107" font-size="12">20</text><text text-anchor="middle" x="10" y="124" font-size="12">Softmax</text></g></g><g><g transform="translate(54, 75)"><path d="M 0 0 L 20 0 V 150 L 0 150 V 0 z" style="fill: rgb(61, 139, 64); stroke: rgb(76, 175, 80); stroke-width: 12; stroke-linejoin: round;"></path><g></g><text text-anchor="middle" x="10" y="167" font-size="12">32</text><text text-anchor="middle" x="10" y="184" font-size="12">BN+Relu</text></g></g><g><g transform="translate(162, 75)"><path d="M 0 0 L 20 0 V 150 L 0 150 V 0 z" style="fill: rgb(61, 139, 64); stroke: rgb(76, 175, 80); stroke-width: 12; stroke-linejoin: round;"></path><g></g><text text-anchor="middle" x="10" y="167" font-size="12">32</text><text text-anchor="middle" x="10" y="184" font-size="12">BN+Relu</text></g></g><g><g transform="translate(398, 75)"><path d="M 0 34.28571428571429 L 40 34.28571428571429 V 115.71428571428571 L 0 115.71428571428571 V 34.28571428571429 z" style="fill: rgb(61, 139, 64); stroke: rgb(76, 175, 80); stroke-width: 12; stroke-linejoin: round;"></path><g></g><text text-anchor="middle" x="20" y="132.71428571428572" font-size="12">64</text><text text-anchor="middle" x="20" y="149.71428571428572" font-size="12">BN+Relu</text></g></g><g><g transform="translate(546, 75)"><path d="M 0 34.28571428571429 L 40 34.28571428571429 V 115.71428571428571 L 0 115.71428571428571 V 34.28571428571429 z" style="fill: rgb(61, 139, 64); stroke: rgb(76, 175, 80); stroke-width: 12; stroke-linejoin: round;"></path><g></g><text text-anchor="middle" x="20" y="132.71428571428572" font-size="12">64</text><text text-anchor="middle" x="20" y="149.71428571428572" font-size="12">BN+Relu</text></g></g><g><g transform="translate(882, 75)"><path d="M 0 51.42857142857143 L 80 51.42857142857143 V 98.57142857142857 L 0 98.57142857142857 V 51.42857142857143 z" style="fill: rgb(61, 139, 64); stroke: rgb(76, 175, 80); stroke-width: 12; stroke-linejoin: round;"></path><g></g><text text-anchor="middle" x="40" y="115.57142857142857" font-size="12">128</text><text text-anchor="middle" x="40" y="132.57142857142856" font-size="12">BN+Relu</text></g></g><g><g transform="translate(1110, 75)"><path d="M 0 51.42857142857143 L 80 51.42857142857143 V 98.57142857142857 L 0 98.57142857142857 V 51.42857142857143 z" style="fill: rgb(61, 139, 64); stroke: rgb(76, 175, 80); stroke-width: 12; stroke-linejoin: round;"></path><g></g><text text-anchor="middle" x="40" y="115.57142857142857" font-size="12">128</text><text text-anchor="middle" x="40" y="132.57142857142856" font-size="12">BN+Relu</text></g></g><g><g transform="translate(1560, 75)"><path d="M 0 0 L 20 0 V 150 L 0 150 V 0 z" style="fill: rgb(61, 139, 64); stroke: rgb(76, 175, 80); stroke-width: 12; stroke-linejoin: round;"></path><g></g><text text-anchor="middle" x="10" y="167" font-size="12">128</text><text text-anchor="middle" x="10" y="184" font-size="12">BN+Relu</text></g></g></g></g></svg>